<svg xmlns="http://www.w3.org/2000/svg" xmlns:xlink="http://www.w3.org/1999/xlink" width="600" height="600" viewBox="0 0 600 600"><g><g transform="translate(300 300) scale(1.00 1.00) rotate(0) translate(-300 -300)" style="fill:#B30000"><svg fill="#B30000" xmlns="http://www.w3.org/2000/svg" xmlns:xlink="http://www.w3.org/1999/xlink" version="1.1" x="0px" y="0px" viewBox="0 0 100 100" style="enable-background:new 0 0 100 100;" xml:space="preserve"><path d="M25.82,71.37c-1.51,2.46-3.28,4.77-5.32,6.9l-0.09,0.09C13.04,70.7,9,60.7,9,50s4.04-20.7,11.41-28.36  c0.03,0.03,0.06,0.06,0.09,0.09c2.04,2.13,3.81,4.44,5.32,6.9l-3.91,2.66c-0.91,0.63-1.14,1.87-0.52,2.78  c0.39,0.57,1.01,0.88,1.65,0.88c0.39,0,0.78-0.12,1.13-0.35l3.58-2.45c1.35,2.77,2.37,5.7,3.05,8.72l-5.24,1.08  c-1.08,0.23-1.78,1.28-1.55,2.37c0.19,0.94,1.02,1.59,1.95,1.59c0.14,0,0.27-0.01,0.41-0.04l5.12-1.05c0.21,1.7,0.33,3.43,0.33,5.18  s-0.12,3.48-0.33,5.18l-5.12-1.05c-1.08-0.22-2.14,0.47-2.36,1.55c-0.23,1.09,0.47,2.14,1.55,2.37l5.24,1.08  c-0.68,3.02-1.7,5.95-3.05,8.72l-3.58-2.45c-0.91-0.62-2.16-0.39-2.78,0.53c-0.62,0.91-0.39,2.15,0.52,2.78L25.82,71.37z   M66.52,76.6c-0.34,0.23-0.73,0.35-1.12,0.35c-0.64,0-1.27-0.31-1.66-0.88c-0.62-0.91-0.38-2.15,0.53-2.78l4.64-3.16  c-1.62-3.23-2.84-6.65-3.63-10.2l-4.55,0.94c-0.14,0.03-0.28,0.04-0.41,0.04c-0.93,0-1.76-0.65-1.96-1.59  c-0.22-1.09,0.48-2.14,1.56-2.37l4.66-0.96c-0.26-1.97-0.4-3.97-0.4-5.99c0-2.02,0.14-4.02,0.4-5.99l-4.66-0.96  c-1.08-0.23-1.78-1.28-1.56-2.37c0.23-1.08,1.29-1.78,2.37-1.55l4.55,0.94c0.79-3.55,2.01-6.97,3.63-10.2l-4.64-3.16  c-0.91-0.63-1.15-1.87-0.53-2.78c0.63-0.92,1.87-1.15,2.78-0.53l4.35,2.97c1.65-2.66,3.58-5.16,5.8-7.47C69.49,12.74,60.18,9,50,9  c-9.85,0-19.25,3.5-26.68,9.89c2.22,2.31,4.16,4.82,5.81,7.48l4.35-2.97c0.91-0.62,2.15-0.39,2.78,0.53  c0.62,0.91,0.38,2.15-0.53,2.78l-4.64,3.16c1.62,3.23,2.84,6.65,3.63,10.2l4.55-0.94c1.09-0.22,2.14,0.47,2.37,1.55  c0.22,1.09-0.48,2.14-1.56,2.37l-4.66,0.96c0.26,1.97,0.4,3.97,0.4,5.99c0,2.02-0.14,4.02-0.4,5.99l4.66,0.96  c1.08,0.23,1.78,1.28,1.56,2.37c-0.2,0.94-1.03,1.59-1.96,1.59c-0.13,0-0.27-0.01-0.41-0.04l-4.55-0.94  c-0.79,3.55-2.01,6.97-3.63,10.2l4.64,3.16c0.91,0.63,1.15,1.87,0.53,2.78c-0.39,0.57-1.02,0.88-1.66,0.88  c-0.39,0-0.78-0.12-1.12-0.35l-4.35-2.97c-1.65,2.66-3.59,5.17-5.81,7.48C30.75,87.5,40.15,91,50,91c10.18,0,19.49-3.74,26.67-9.9  c-2.22-2.31-4.15-4.81-5.8-7.47L66.52,76.6z M79.58,21.65c-2.07,2.15-3.87,4.49-5.4,6.98l3.91,2.66c0.91,0.63,1.14,1.87,0.52,2.78  c-0.39,0.57-1.01,0.88-1.65,0.88c-0.39,0-0.78-0.12-1.13-0.35l-3.58-2.45c-1.35,2.77-2.37,5.7-3.05,8.72l5.24,1.08  c1.08,0.23,1.78,1.28,1.55,2.37c-0.19,0.94-1.02,1.59-1.95,1.59c-0.14,0-0.27-0.01-0.41-0.04l-5.12-1.05  c-0.21,1.7-0.33,3.43-0.33,5.18s0.12,3.48,0.33,5.18l5.12-1.05c1.08-0.23,2.14,0.47,2.36,1.55c0.23,1.09-0.47,2.14-1.55,2.37  l-5.24,1.08c0.68,3.02,1.7,5.95,3.05,8.72l3.58-2.45c0.92-0.62,2.16-0.39,2.78,0.53c0.62,0.91,0.39,2.15-0.52,2.78l-3.91,2.66  c1.53,2.49,3.33,4.83,5.4,6.98C86.64,70.98,91,60.99,91,50S86.64,29.02,79.58,21.65z"></path></svg></g></g></svg>